<svg xmlns="http://www.w3.org/2000/svg" viewBox="0 -14 640 156" width="640" height="156" font-family="sans-serif">
<rect x="10" y="26" width="62" height="46" fill="#eef3fb" stroke="#c9cede" stroke-width="1"/>
<text x="41" y="18" text-anchor="middle" font-size="11" fill="#8a93ad">0</text>
<text x="41" y="55" text-anchor="middle" font-size="16">3</text>
<rect x="72" y="26" width="62" height="46" fill="#fdf7e0" stroke="#c9cede" stroke-width="1"/>
<text x="103" y="18" text-anchor="middle" font-size="11" fill="#8a93ad">1</text>
<text x="103" y="55" text-anchor="middle" font-size="16">7</text>
<rect x="134" y="26" width="62" height="46" fill="#fdf7e0" stroke="#c9cede" stroke-width="1"/>
<text x="165" y="18" text-anchor="middle" font-size="11" fill="#8a93ad">2</text>
<text x="165" y="55" text-anchor="middle" font-size="16">6</text>
<rect x="196" y="26" width="62" height="46" fill="#fdf7e0" stroke="#c9cede" stroke-width="1"/>
<text x="227" y="18" text-anchor="middle" font-size="11" fill="#8a93ad">3</text>
<text x="227" y="55" text-anchor="middle" font-size="16" font-weight="bold">12</text>
<rect x="258" y="26" width="62" height="46" fill="#fdf7e0" stroke="#c9cede" stroke-width="1"/>
<text x="289" y="18" text-anchor="middle" font-size="11" fill="#8a93ad">4</text>
<text x="289" y="55" text-anchor="middle" font-size="16">5</text>
<rect x="320" y="26" width="62" height="46" fill="#fdf7e0" stroke="#c9cede" stroke-width="1"/>
<text x="351" y="18" text-anchor="middle" font-size="11" fill="#8a93ad">5</text>
<text x="351" y="55" text-anchor="middle" font-size="16">10</text>
<rect x="382" y="26" width="62" height="46" fill="#eef3fb" stroke="#c9cede" stroke-width="1"/>
<text x="413" y="18" text-anchor="middle" font-size="11" fill="#8a93ad">6</text>
<text x="413" y="55" text-anchor="middle" font-size="16">8</text>
<rect x="444" y="26" width="62" height="46" fill="#eef3fb" stroke="#c9cede" stroke-width="1"/>
<text x="475" y="18" text-anchor="middle" font-size="11" fill="#8a93ad">7</text>
<text x="475" y="55" text-anchor="middle" font-size="16">9</text>
<rect x="506" y="26" width="62" height="46" fill="#eef3fb" stroke="#c9cede" stroke-width="1"/>
<text x="537" y="18" text-anchor="middle" font-size="11" fill="#8a93ad">8</text>
<text x="537" y="55" text-anchor="middle" font-size="16">2</text>
<rect x="568" y="26" width="62" height="46" fill="#eef3fb" stroke="#c9cede" stroke-width="1"/>
<text x="599" y="18" text-anchor="middle" font-size="11" fill="#8a93ad">9</text>
<text x="599" y="55" text-anchor="middle" font-size="16">5</text>
<rect x="197.5" y="27.5" width="59" height="43" fill="none" stroke="#1428a0" stroke-width="3"/>
<rect x="201" y="4" width="52" height="15" rx="7.5" fill="#1428a0"/>
<text x="227" y="15" text-anchor="middle" font-size="10" fill="#fff" font-weight="bold">최대 12</text>
<text x="10" y="98" font-size="12" fill="#333">'3 1 5' → 12   |   이후 '2 3 5 2' : [3,5] 를 2 로 재설정</text>
</svg>