<svg xmlns="http://www.w3.org/2000/svg" viewBox="0 0 836 250" width="836" height="250" font-family="sans-serif">
<text x="70" y="22" font-size="13" font-weight="bold" fill="#222">명령 3 3 : 3곳 선택, 최소 간격을 최대화</text>
<text x="70" y="48" font-size="12" fill="#1a8a4a" font-weight="bold">d=4 : 1→6→10 (3곳) 성공</text>
<line x1="70" y1="78" x2="796" y2="78" stroke="#8a93ad" stroke-width="2"/>
<line x1="70" y1="74" x2="70" y2="82" stroke="#8a93ad" stroke-width="1"/>
<text x="70" y="96" text-anchor="middle" font-size="10" fill="#8a93ad">0</text>
<line x1="136" y1="74" x2="136" y2="82" stroke="#8a93ad" stroke-width="1"/>
<text x="136" y="96" text-anchor="middle" font-size="10" fill="#8a93ad">1</text>
<line x1="202" y1="74" x2="202" y2="82" stroke="#8a93ad" stroke-width="1"/>
<text x="202" y="96" text-anchor="middle" font-size="10" fill="#8a93ad">2</text>
<line x1="268" y1="74" x2="268" y2="82" stroke="#8a93ad" stroke-width="1"/>
<text x="268" y="96" text-anchor="middle" font-size="10" fill="#8a93ad">3</text>
<line x1="334" y1="74" x2="334" y2="82" stroke="#8a93ad" stroke-width="1"/>
<text x="334" y="96" text-anchor="middle" font-size="10" fill="#8a93ad">4</text>
<line x1="400" y1="74" x2="400" y2="82" stroke="#8a93ad" stroke-width="1"/>
<text x="400" y="96" text-anchor="middle" font-size="10" fill="#8a93ad">5</text>
<line x1="466" y1="74" x2="466" y2="82" stroke="#8a93ad" stroke-width="1"/>
<text x="466" y="96" text-anchor="middle" font-size="10" fill="#8a93ad">6</text>
<line x1="532" y1="74" x2="532" y2="82" stroke="#8a93ad" stroke-width="1"/>
<text x="532" y="96" text-anchor="middle" font-size="10" fill="#8a93ad">7</text>
<line x1="598" y1="74" x2="598" y2="82" stroke="#8a93ad" stroke-width="1"/>
<text x="598" y="96" text-anchor="middle" font-size="10" fill="#8a93ad">8</text>
<line x1="664" y1="74" x2="664" y2="82" stroke="#8a93ad" stroke-width="1"/>
<text x="664" y="96" text-anchor="middle" font-size="10" fill="#8a93ad">9</text>
<line x1="730" y1="74" x2="730" y2="82" stroke="#8a93ad" stroke-width="1"/>
<text x="730" y="96" text-anchor="middle" font-size="10" fill="#8a93ad">10</text>
<line x1="796" y1="74" x2="796" y2="82" stroke="#8a93ad" stroke-width="1"/>
<text x="796" y="96" text-anchor="middle" font-size="10" fill="#8a93ad">11</text>
<text x="70" y="62" font-size="11" fill="#8a93ad">탐방로 (입구로부터의 거리 m)</text>
<circle cx="136" cy="78" r="14" fill="none" stroke="#1a8a4a" stroke-width="3"/>
<circle cx="136" cy="78" r="9" fill="#e0a800"/>
<text x="136" y="82" text-anchor="middle" font-size="11" fill="#fff" font-weight="bold">1</text>
<circle cx="268" cy="78" r="9" fill="#c3c9d6"/>
<text x="268" y="82" text-anchor="middle" font-size="11" fill="#fff" font-weight="bold">3</text>
<circle cx="466" cy="78" r="14" fill="none" stroke="#1a8a4a" stroke-width="3"/>
<circle cx="466" cy="78" r="9" fill="#e0a800"/>
<text x="466" y="82" text-anchor="middle" font-size="11" fill="#fff" font-weight="bold">6</text>
<circle cx="730" cy="78" r="14" fill="none" stroke="#1a8a4a" stroke-width="3"/>
<circle cx="730" cy="78" r="9" fill="#e0a800"/>
<text x="730" y="82" text-anchor="middle" font-size="11" fill="#fff" font-weight="bold">10</text>
<path d="M 136 68 Q 301 44 466 68" fill="none" stroke="#1a8a4a" stroke-width="2.5"/>
<text x="301" y="41" text-anchor="middle" font-size="11" font-weight="bold" fill="#1a8a4a">5</text>
<path d="M 466 68 Q 598 44 730 68" fill="none" stroke="#1a8a4a" stroke-width="2.5"/>
<text x="598" y="41" text-anchor="middle" font-size="11" font-weight="bold" fill="#1a8a4a">4</text>
<text x="70" y="158" font-size="12" fill="#c0392b" font-weight="bold">d=5 : 1→6→(다음 &gt;=11 없음) 2곳뿐 실패</text>
<line x1="70" y1="188" x2="796" y2="188" stroke="#8a93ad" stroke-width="2"/>
<line x1="70" y1="184" x2="70" y2="192" stroke="#8a93ad" stroke-width="1"/>
<text x="70" y="206" text-anchor="middle" font-size="10" fill="#8a93ad">0</text>
<line x1="136" y1="184" x2="136" y2="192" stroke="#8a93ad" stroke-width="1"/>
<text x="136" y="206" text-anchor="middle" font-size="10" fill="#8a93ad">1</text>
<line x1="202" y1="184" x2="202" y2="192" stroke="#8a93ad" stroke-width="1"/>
<text x="202" y="206" text-anchor="middle" font-size="10" fill="#8a93ad">2</text>
<line x1="268" y1="184" x2="268" y2="192" stroke="#8a93ad" stroke-width="1"/>
<text x="268" y="206" text-anchor="middle" font-size="10" fill="#8a93ad">3</text>
<line x1="334" y1="184" x2="334" y2="192" stroke="#8a93ad" stroke-width="1"/>
<text x="334" y="206" text-anchor="middle" font-size="10" fill="#8a93ad">4</text>
<line x1="400" y1="184" x2="400" y2="192" stroke="#8a93ad" stroke-width="1"/>
<text x="400" y="206" text-anchor="middle" font-size="10" fill="#8a93ad">5</text>
<line x1="466" y1="184" x2="466" y2="192" stroke="#8a93ad" stroke-width="1"/>
<text x="466" y="206" text-anchor="middle" font-size="10" fill="#8a93ad">6</text>
<line x1="532" y1="184" x2="532" y2="192" stroke="#8a93ad" stroke-width="1"/>
<text x="532" y="206" text-anchor="middle" font-size="10" fill="#8a93ad">7</text>
<line x1="598" y1="184" x2="598" y2="192" stroke="#8a93ad" stroke-width="1"/>
<text x="598" y="206" text-anchor="middle" font-size="10" fill="#8a93ad">8</text>
<line x1="664" y1="184" x2="664" y2="192" stroke="#8a93ad" stroke-width="1"/>
<text x="664" y="206" text-anchor="middle" font-size="10" fill="#8a93ad">9</text>
<line x1="730" y1="184" x2="730" y2="192" stroke="#8a93ad" stroke-width="1"/>
<text x="730" y="206" text-anchor="middle" font-size="10" fill="#8a93ad">10</text>
<line x1="796" y1="184" x2="796" y2="192" stroke="#8a93ad" stroke-width="1"/>
<text x="796" y="206" text-anchor="middle" font-size="10" fill="#8a93ad">11</text>
<text x="70" y="172" font-size="11" fill="#8a93ad">탐방로 (입구로부터의 거리 m)</text>
<circle cx="136" cy="188" r="14" fill="none" stroke="#1a8a4a" stroke-width="3"/>
<circle cx="136" cy="188" r="9" fill="#e0a800"/>
<text x="136" y="192" text-anchor="middle" font-size="11" fill="#fff" font-weight="bold">1</text>
<circle cx="268" cy="188" r="9" fill="#c3c9d6"/>
<text x="268" y="192" text-anchor="middle" font-size="11" fill="#fff" font-weight="bold">3</text>
<circle cx="466" cy="188" r="14" fill="none" stroke="#1a8a4a" stroke-width="3"/>
<circle cx="466" cy="188" r="9" fill="#e0a800"/>
<text x="466" y="192" text-anchor="middle" font-size="11" fill="#fff" font-weight="bold">6</text>
<circle cx="730" cy="188" r="9" fill="#c3c9d6"/>
<text x="730" y="192" text-anchor="middle" font-size="11" fill="#fff" font-weight="bold">10</text>
<path d="M 136 178 Q 301 154 466 178" fill="none" stroke="#1a8a4a" stroke-width="2.5"/>
<text x="301" y="151" text-anchor="middle" font-size="11" font-weight="bold" fill="#1a8a4a">5</text>
<text x="532" y="232" font-size="13" font-weight="bold" fill="#1428a0">⇒ 답 = 4</text>
</svg>